<svg xmlns="http://www.w3.org/2000/svg" viewBox="0 0 800 240" width="800" height="240">
  <defs>
    <linearGradient id="topGold" x1="0%" y1="0%" x2="100%" y2="100%">
      <stop offset="0%" stop-color="#FFF3C2" />
      <stop offset="40%" stop-color="#FBE285" />
      <stop offset="100%" stop-color="#E5C158" />
    </linearGradient>

    <linearGradient id="rightGold" x1="0%" y1="0%" x2="100%" y2="100%">
      <stop offset="0%" stop-color="#E5C158" />
      <stop offset="50%" stop-color="#D4AF37" />
      <stop offset="100%" stop-color="#A2770C" />
    </linearGradient>

    <linearGradient id="leftGold" x1="100%" y1="0%" x2="0%" y2="100%">
      <stop offset="0%" stop-color="#A2770C" />
      <stop offset="60%" stop-color="#735206" />
      <stop offset="100%" stop-color="#4E3602" />
    </linearGradient>
  </defs>

  <!-- Left: Hexa-Matrix Symbol -->
  <g transform="translate(15, 12) scale(0.42)">
    <polygon points="256,52 82.8,152 152.1,192 256,132" fill="url(#topGold)" />
    <polygon points="256,52 429.2,152 359.9,192 256,132" fill="url(#topGold)" opacity="0.92" />

    <polygon points="82.8,152 82.8,352 152.1,312 152.1,192" fill="url(#leftGold)" />
    <polygon points="82.8,352 256,452 256,372 152.1,312" fill="url(#leftGold)" opacity="0.88" />

    <polygon points="429.2,152 429.2,352 359.9,312 359.9,192" fill="url(#rightGold)" />
    <polygon points="429.2,352 256,452 256,372 359.9,312" fill="url(#rightGold)" opacity="0.92" />

    <polygon points="256,132 359.9,192 359.9,312 256,372 152.1,312 152.1,192" fill="#0D0D0D" opacity="0.3" />

    <line x1="256" y1="52" x2="256" y2="132" stroke="#FFF3C2" stroke-width="2.5" stroke-linecap="round" />
    <line x1="82.8" y1="152" x2="152.1" y2="192" stroke="#FFF3C2" stroke-width="2" />
    <line x1="429.2" y1="152" x2="359.9" y2="192" stroke="#FFF3C2" stroke-width="2" />

    <line x1="152.1" y1="192" x2="152.1" y2="312" stroke="#D4AF37" stroke-width="1.5" opacity="0.8" />
    <line x1="359.9" y1="192" x2="359.9" y2="312" stroke="#FFF3C2" stroke-width="1.5" opacity="0.8" />
    <line x1="256" y1="372" x2="256" y2="452" stroke="#FBE285" stroke-width="2.5" stroke-linecap="round" />

    <polygon points="256,192 311.4,224 256,256 200.6,224" fill="url(#topGold)" />
    <polygon points="200.6,224 256,256 256,320 200.6,288" fill="url(#leftGold)" />
    <polygon points="256,256 311.4,224 311.4,288 256,320" fill="url(#rightGold)" />

    <line x1="256" y1="192" x2="256" y2="256" stroke="#FFFFFF" stroke-width="2" opacity="0.9" />
    <line x1="200.6" y1="224" x2="256" y2="256" stroke="#FFF3C2" stroke-width="1.5" />
    <line x1="311.4" y1="224" x2="256" y2="256" stroke="#FFF3C2" stroke-width="1.5" />
    <line x1="256" y1="256" x2="256" y2="320" stroke="#FFF3C2" stroke-width="2" />
  </g>

  <!-- Right: Premium Typography -->
  <text x="235" y="82" font-family="'Poppins', 'Montserrat', sans-serif" font-weight="600" font-size="18" fill="url(#topGold)" letter-spacing="4">MUHAMMAD SHEHROZ SULTAN</text>

  <line x1="235" y1="125" x2="265" y2="125" stroke="url(#topGold)" stroke-width="3" />
  <text x="280" y="136" font-family="'Poppins', 'Inter', sans-serif" font-weight="800" font-size="38" fill="url(#topGold)" letter-spacing="6">MFS GROWTH</text>
  <line x1="695" y1="125" x2="725" y2="125" stroke="url(#topGold)" stroke-width="3" />

  <text x="235" y="178" font-family="'Poppins', 'Inter', sans-serif" font-weight="500" font-size="18" fill="#9FA0A7" letter-spacing="8">DIGITAL AGENCY</text>
</svg>